# xmcd
#
# Track frame offsets:
#	150
#	39668
#	49148
#	72845
#	102343
#	118665
#	137385
#	154873
#	175345
#
# Disc length: 2620 seconds
#
# Revision: 0
# Processed by: cddbd v1.5.2PL0 Copyright (c) Steve Scherf et al.
# Submitted via: audiograbber 1.83.01
#
DISCID=780a3a09
DTITLE=Led Zeppelin - Physical Graffiti [CDTwo)
DYEAR=1975
DGENRE=Hard Rock
TTITLE0=In The Light
TTITLE1=Bron-Yr-Aur
TTITLE2=Down By The Seaside
TTITLE3=Ten Years Gone
TTITLE4=Night Flight
TTITLE5=The Wanton Song
TTITLE6=Boogie With Stu
TTITLE7=Black Country Woman
TTITLE8=Sick Again
EXTD=
EXTT0=
EXTT1=
EXTT2=
EXTT3=
EXTT4=
EXTT5=
EXTT6=
EXTT7=
EXTT8=
PLAYORDER=
